<svg width="28" height="5" viewBox="0 0 28 5" fill="none" xmlns="http://www.w3.org/2000/svg">
<path d="M27.0375 2.95575C26.6153 2.66232 26.2438 2.30204 25.9375 1.88911C25.2042 1.05579 24.2709 0.0224609 22.5375 0.0224609C20.8042 0.0224609 19.9042 1.02243 19.1375 1.92248C18.3708 2.82253 17.8709 3.35579 16.7375 3.35579C15.6042 3.35579 15.0375 2.72243 14.3376 1.92248C13.6376 1.12253 12.7042 0.0224609 10.9376 0.0224609C9.1709 0.0224609 8.30428 1.02243 7.53758 1.92248C6.77093 2.82247 6.27092 3.35579 5.13761 3.35579C4.00429 3.35579 3.43761 2.72243 2.73764 1.92248C2.2618 1.29403 1.66009 0.771813 0.970963 0.38913C0.639576 0.223436 0.236668 0.357739 0.0709744 0.689126C-0.0947189 1.02051 0.039584 1.42342 0.370971 1.58911C0.894337 1.90455 1.35716 2.31097 1.73761 2.7891C2.50425 3.68909 3.40424 4.68912 5.13761 4.68912C6.87097 4.68912 7.7709 3.68915 8.53761 2.7891C9.30425 1.88911 9.80426 1.35579 10.9376 1.35579C12.0709 1.35579 12.6376 1.98915 13.3375 2.7891C14.0375 3.58905 14.9709 4.68912 16.7375 4.68912C18.5042 4.68912 19.3708 3.68915 20.1375 2.7891C20.9043 1.88905 21.4042 1.35579 22.5375 1.35579C23.6708 1.35579 24.2375 1.98915 24.9375 2.7891C25.326 3.2879 25.7866 3.72603 26.3041 4.08906C26.6171 4.29157 27.035 4.20205 27.2375 3.88904C27.4401 3.57616 27.3505 3.15826 27.0375 2.95575Z" fill="#4C7897"/>
</svg>
