<svg width="60" height="18" viewBox="0 0 60 18" fill="none" xmlns="http://www.w3.org/2000/svg">
<path fill-rule="evenodd" clip-rule="evenodd" d="M59.5274 2.87996C58.0959 1.26371 56.1712 0.374023 54.1096 0.374023C54.1077 0.374023 54.1077 0.374023 54.1077 0.374023C52.0462 0.374023 50.1196 1.26371 48.6862 2.87902C47.9737 3.68246 47.0437 4.1259 46.0696 4.1259C46.0696 4.1259 46.0696 4.1259 46.0677 4.1259C45.0955 4.12402 44.1693 3.68246 43.4587 2.87902C42.0234 1.26277 40.0987 0.374023 38.0371 0.374023C38.0371 0.374023 38.0371 0.374023 38.0352 0.374023C35.9755 0.374023 34.0509 1.26371 32.6174 2.87902C31.9049 3.68246 30.9749 4.1259 30.0009 4.1259C29.0268 4.1259 28.0987 3.68246 27.3862 2.87902C25.9518 1.26371 24.0271 0.374023 21.9655 0.374023C19.904 0.374023 17.9793 1.26371 16.5449 2.87996C15.1199 4.48684 12.7396 4.48777 11.3155 2.87902C9.88117 1.26371 7.95648 0.374023 5.89492 0.374023C3.83336 0.374023 1.90867 1.26371 0.474293 2.87902C-0.212895 3.6534 -0.141645 4.83933 0.631793 5.52746C1.40804 6.21371 2.59211 6.14152 3.27929 5.36996C4.70429 3.76308 7.08648 3.76496 8.51054 5.36808C9.94492 6.98433 11.8696 7.87683 13.9302 7.87683C15.9909 7.87683 17.9155 6.98433 19.3499 5.36996C20.7749 3.76308 23.1571 3.76496 24.5812 5.36808C26.0146 6.98433 27.9393 7.87402 29.9999 7.87683C32.0615 7.87402 33.9862 6.98433 35.4215 5.36996C36.8465 3.76308 39.2305 3.76496 40.6509 5.36808C42.0824 6.98246 44.0052 7.87402 46.0649 7.87683C46.0668 7.87683 46.0687 7.87683 46.0687 7.87683C48.1302 7.87402 50.0549 6.98715 51.4902 5.36996C52.2027 4.56652 53.1309 4.12402 54.1068 4.12402C55.0809 4.12402 56.009 4.56652 56.7215 5.36808C57.4077 6.14152 58.5927 6.2109 59.3671 5.52746C60.1443 4.84027 60.2146 3.65527 59.5274 2.87996ZM47.5396 12.255C46.8712 13.0584 45.9974 13.5028 45.0834 13.5028C45.0834 13.5028 45.0834 13.5028 45.0815 13.5028C44.1693 13.5009 43.3002 13.0584 42.6327 12.255C41.2846 10.6378 39.479 9.74902 37.543 9.74902C37.543 9.74902 37.543 9.74902 37.5421 9.74902C35.608 9.7509 33.8015 10.6396 32.4562 12.255C31.7868 13.0584 30.913 13.5028 29.9999 13.5028C29.0849 13.5009 28.2149 13.0584 27.5455 12.255C26.1984 10.6396 24.3927 9.74902 22.4568 9.74902C20.5209 9.74902 18.7152 10.6396 17.368 12.255C16.0312 13.8628 13.7962 13.8628 12.4602 12.255C11.8143 11.4815 10.7015 11.4103 9.97585 12.0984C9.24929 12.7837 9.18085 13.9715 9.82773 14.745C11.174 16.3612 12.9805 17.2528 14.9146 17.2528C16.8496 17.2528 18.6552 16.3612 20.0024 14.745C21.3402 13.1371 23.5762 13.1371 24.913 14.745C26.2593 16.3612 28.0649 17.2509 29.9999 17.2528C31.9349 17.2509 33.7415 16.3612 35.0896 14.745C36.4265 13.1371 38.6643 13.14 39.9974 14.744C41.3418 16.3584 43.1465 17.2509 45.0805 17.2528C45.0815 17.2528 45.0834 17.2528 45.0834 17.2528C47.0184 17.2528 48.8249 16.3631 50.173 14.745C50.818 13.9715 50.7524 12.7865 50.0259 12.0984C49.2974 11.4103 48.1874 11.4796 47.5396 12.255Z" fill="#4C7897"/>
</svg>
