<svg width="34" height="34" viewBox="0 0 34 34" fill="none" xmlns="http://www.w3.org/2000/svg">
<path fill-rule="evenodd" clip-rule="evenodd" d="M17 34C26.3888 34 34 26.3888 34 17C34 7.61116 26.3888 0 17 0C7.61116 0 0 7.61116 0 17C0 26.3888 7.61116 34 17 34Z" fill="#57BB63"/>
<path fill-rule="evenodd" clip-rule="evenodd" d="M17.0406 26.192C15.4197 26.192 13.8969 25.7777 12.5721 25.0506L7.4541 26.677L9.12251 21.7554C8.28098 20.373 7.79619 18.7519 7.79619 17.0191C7.79619 11.953 11.935 7.84619 17.0408 7.84619C22.1461 7.84619 26.2849 11.953 26.2849 17.0191C26.2849 22.0852 22.1463 26.192 17.0406 26.192ZM17.0406 9.30704C12.7548 9.30704 9.26855 12.7667 9.26855 17.0191C9.26855 18.7065 9.81862 20.2693 10.7489 21.5408L9.77803 24.4047L12.7646 23.4554C13.9919 24.2612 15.462 24.7311 17.0406 24.7311C21.3259 24.7311 24.8127 21.2717 24.8127 17.0193C24.8127 12.7669 21.3259 9.30704 17.0406 9.30704ZM21.7086 19.1317C21.6517 19.0382 21.5006 18.9817 21.2744 18.8693C21.0476 18.7569 19.9333 18.2127 19.7259 18.138C19.5179 18.0631 19.3667 18.0253 19.2158 18.2504C19.0649 18.4755 18.6306 18.9817 18.4981 19.1317C18.3659 19.2819 18.2339 19.3007 18.0073 19.1882C17.7809 19.0758 17.0507 18.8383 16.1849 18.0723C15.5114 17.4765 15.0565 16.7408 14.9245 16.5155C14.7922 16.2905 14.9105 16.169 15.0239 16.057C15.1258 15.9562 15.2505 15.7945 15.3639 15.6633C15.4773 15.5319 15.5149 15.4383 15.5902 15.2881C15.666 15.1381 15.6281 15.0069 15.5714 14.8941C15.5147 14.7818 15.0613 13.6754 14.8726 13.2251C14.6839 12.7753 14.4953 12.8502 14.3629 12.8502C14.2307 12.8502 14.0796 12.8313 13.9285 12.8313C13.7775 12.8313 13.5318 12.8876 13.3241 13.1125C13.1165 13.3377 12.5313 13.8817 12.5313 14.9879C12.5313 16.0943 13.3429 17.1632 13.4565 17.313C13.5697 17.4629 15.0237 19.8071 17.3271 20.7074C19.6313 21.6075 19.6313 21.3073 20.0469 21.2698C20.4618 21.2324 21.387 20.726 21.5763 20.2011C21.7649 19.6757 21.7649 19.2254 21.7086 19.1317Z" fill="white"/>
</svg>
