<svg width="42" height="42" viewBox="0 0 42 42" fill="none" xmlns="http://www.w3.org/2000/svg">
<path d="M21 42C32.598 42 42 32.598 42 21C42 9.40202 32.598 0 21 0C9.40202 0 0 9.40202 0 21C0 32.598 9.40202 42 21 42Z" fill="#CA3737"/>
<path d="M30.7996 16.1875C30.7996 16.1 30.7996 16.0125 30.7121 15.925V15.8375C30.4496 15.05 29.7496 14.525 28.8746 14.525H29.0496C29.0496 14.525 25.6371 14 20.9996 14C16.4496 14 12.9496 14.525 12.9496 14.525H13.1246C12.2496 14.525 11.5496 15.05 11.2871 15.8375V15.925C11.2871 16.0125 11.2871 16.1 11.1996 16.1875C11.1121 17.0625 10.8496 18.9 10.8496 21C10.8496 23.1 11.1121 24.9375 11.1996 25.8125C11.1996 25.9 11.1996 25.9875 11.2871 26.075V26.1625C11.5496 26.95 12.2496 27.475 13.1246 27.475H12.9496C12.9496 27.475 16.3621 28 20.9996 28C25.5496 28 29.0496 27.475 29.0496 27.475H28.8746C29.7496 27.475 30.4496 26.95 30.7121 26.1625V26.075C30.7121 25.9875 30.7121 25.9 30.7996 25.8125C30.8871 24.9375 31.1496 23.1 31.1496 21C31.1496 18.9 30.9746 17.0625 30.7996 16.1875ZM23.9746 21.4375L19.8621 24.4125C19.7746 24.5 19.6871 24.5 19.5996 24.5C19.5121 24.5 19.4246 24.5 19.3371 24.4125C19.1621 24.325 19.0746 24.15 19.0746 23.975V18.025C19.0746 17.85 19.1621 17.675 19.3371 17.5875C19.5121 17.5 19.6871 17.5 19.8621 17.5875L23.9746 20.5625C24.0621 20.65 24.1496 20.825 24.1496 21C24.2371 21.175 24.1496 21.35 23.9746 21.4375Z" fill="white"/>
</svg>
