<svg width="60" height="18" viewBox="0 0 60 18" fill="none" xmlns="http://www.w3.org/2000/svg">
<path fill-rule="evenodd" clip-rule="evenodd" d="M59.5274 2.88002C58.0959 1.26377 56.1712 0.374084 54.1096 0.374084C54.1077 0.374084 54.1077 0.374084 54.1077 0.374084C52.0462 0.374084 50.1196 1.26377 48.6862 2.87908C47.9737 3.68252 47.0437 4.12596 46.0696 4.12596C46.0696 4.12596 46.0696 4.12596 46.0677 4.12596C45.0955 4.12408 44.1693 3.68252 43.4587 2.87908C42.0234 1.26283 40.0987 0.374084 38.0371 0.374084C38.0371 0.374084 38.0371 0.374084 38.0352 0.374084C35.9755 0.374084 34.0509 1.26377 32.6174 2.87908C31.9049 3.68252 30.9749 4.12596 30.0009 4.12596C29.0268 4.12596 28.0987 3.68252 27.3862 2.87908C25.9518 1.26377 24.0271 0.374084 21.9655 0.374084C19.904 0.374084 17.9793 1.26377 16.5449 2.88002C15.1199 4.4869 12.7396 4.48783 11.3155 2.87908C9.88117 1.26377 7.95648 0.374084 5.89492 0.374084C3.83336 0.374084 1.90867 1.26377 0.474293 2.87908C-0.212895 3.65346 -0.141645 4.8394 0.631793 5.52752C1.40804 6.21377 2.59211 6.14158 3.27929 5.37002C4.70429 3.76315 7.08648 3.76502 8.51054 5.36815C9.94492 6.9844 11.8696 7.87689 13.9302 7.87689C15.9909 7.87689 17.9155 6.9844 19.3499 5.37002C20.7749 3.76315 23.1571 3.76502 24.5812 5.36815C26.0146 6.9844 27.9393 7.87408 29.9999 7.87689C32.0615 7.87408 33.9862 6.9844 35.4215 5.37002C36.8465 3.76315 39.2305 3.76502 40.6509 5.36815C42.0824 6.98252 44.0052 7.87408 46.0649 7.87689C46.0668 7.87689 46.0687 7.87689 46.0687 7.87689C48.1302 7.87408 50.0549 6.98721 51.4902 5.37002C52.2027 4.56658 53.1309 4.12408 54.1068 4.12408C55.0809 4.12408 56.009 4.56658 56.7215 5.36815C57.4077 6.14158 58.5927 6.21096 59.3671 5.52752C60.1443 4.84033 60.2146 3.65533 59.5274 2.88002ZM47.5396 12.255C46.8712 13.0585 45.9974 13.5028 45.0834 13.5028C45.0834 13.5028 45.0834 13.5028 45.0815 13.5028C44.1693 13.501 43.3002 13.0585 42.6327 12.255C41.2846 10.6378 39.479 9.74908 37.543 9.74908C37.543 9.74908 37.543 9.74908 37.5421 9.74908C35.608 9.75096 33.8015 10.6397 32.4562 12.255C31.7868 13.0585 30.913 13.5028 29.9999 13.5028C29.0849 13.501 28.2149 13.0585 27.5455 12.255C26.1984 10.6397 24.3927 9.74908 22.4568 9.74908C20.5209 9.74908 18.7152 10.6397 17.368 12.255C16.0312 13.8628 13.7962 13.8628 12.4602 12.255C11.8143 11.4816 10.7015 11.4103 9.97585 12.0985C9.24929 12.7838 9.18085 13.9716 9.82773 14.745C11.174 16.3613 12.9805 17.2528 14.9146 17.2528C16.8496 17.2528 18.6552 16.3613 20.0024 14.745C21.3402 13.1372 23.5762 13.1372 24.913 14.745C26.2593 16.3613 28.0649 17.251 29.9999 17.2528C31.9349 17.251 33.7415 16.3613 35.0896 14.745C36.4265 13.1372 38.6643 13.14 39.9974 14.7441C41.3418 16.3585 43.1465 17.251 45.0805 17.2528C45.0815 17.2528 45.0834 17.2528 45.0834 17.2528C47.0184 17.2528 48.8249 16.3631 50.173 14.745C50.818 13.9716 50.7524 12.7866 50.0259 12.0985C49.2974 11.4103 48.1874 11.4797 47.5396 12.255Z" fill="white"/>
</svg>
