<svg width="34" height="6" viewBox="0 0 34 6" fill="none" xmlns="http://www.w3.org/2000/svg">
<path d="M32.9138 3.9201C32.4082 3.56799 31.9633 3.13564 31.5965 2.64013C30.7183 1.64015 29.6007 0.400146 27.525 0.400146C25.4493 0.400146 24.3716 1.60011 23.4535 2.68017C22.5354 3.76016 21.9366 4.40015 20.5795 4.40015C19.2223 4.40015 18.5437 3.64011 17.7055 2.68017C16.8673 1.72016 15.7496 0.400146 13.634 0.400146C11.5184 0.400146 10.4806 1.60011 9.56244 2.68017C8.64438 3.76016 8.04561 4.40015 6.68846 4.40015C5.33131 4.40015 4.65269 3.64011 3.81447 2.68017C3.24466 1.92603 2.5241 1.29937 1.69887 0.84015C1.30203 0.641317 0.819544 0.802482 0.621125 1.20015C0.422706 1.59781 0.583535 2.0813 0.980373 2.28013C1.60711 2.65866 2.16134 3.14636 2.61693 3.72012C3.53499 4.80011 4.61273 6.00015 6.68846 6.00015C8.76418 6.00015 9.84184 4.80018 10.76 3.72012C11.678 2.64013 12.2768 2.00015 13.634 2.00015C14.9911 2.00015 15.6697 2.76018 16.5079 3.72012C17.3462 4.68013 18.4639 6.00015 20.5795 6.00015C22.6951 6.00015 23.7329 4.80018 24.651 3.72012C25.5691 2.64013 26.1678 2.00015 27.525 2.00015C28.8821 2.00015 29.5607 2.76018 30.399 3.72012C30.8642 4.31868 31.4157 4.84444 32.0355 5.28008C32.4103 5.52309 32.9107 5.41567 33.1532 5.04006C33.3958 4.66459 33.2886 4.16311 32.9138 3.9201Z" fill="#4C7897"/>
</svg>
