<svg width="34" height="34" viewBox="0 0 34 34" fill="none" xmlns="http://www.w3.org/2000/svg">
<circle cx="17" cy="17" r="17" fill="#92579C"/>
<path d="M20.5 8H13.5C12.0413 8 10.6424 8.57946 9.61091 9.61091C8.57946 10.6424 8 12.0413 8 13.5V20.5C8 21.9587 8.57946 23.3576 9.61091 24.3891C10.6424 25.4205 12.0413 26 13.5 26H20.5C21.9587 26 23.3576 25.4205 24.3891 24.3891C25.4205 23.3576 26 21.9587 26 20.5V13.5C26 12.0413 25.4205 10.6424 24.3891 9.61091C23.3576 8.57946 21.9587 8 20.5 8ZM24.5 20.5C24.4988 21.5605 24.077 22.5772 23.3271 23.3271C22.5772 24.077 21.5605 24.4988 20.5 24.5H13.5C12.4395 24.4988 11.4228 24.077 10.6729 23.3271C9.92301 22.5772 9.5012 21.5605 9.5 20.5V13.5C9.50119 12.4395 9.923 11.4228 10.6729 10.6729C11.4228 9.923 12.4395 9.50119 13.5 9.5H20.5C21.5605 9.50119 22.5772 9.923 23.3271 10.6729C24.077 11.4228 24.4988 12.4395 24.5 13.5V20.5Z" fill="white"/>
<path d="M17 12.5C16.11 12.5 15.24 12.7639 14.4999 13.2584C13.7599 13.7529 13.1831 14.4557 12.8425 15.2779C12.5019 16.1002 12.4128 17.005 12.5865 17.8779C12.7601 18.7508 13.1887 19.5526 13.818 20.182C14.4474 20.8113 15.2492 21.2399 16.1221 21.4135C16.995 21.5872 17.8998 21.4981 18.7221 21.1575C19.5443 20.8169 20.2471 20.2401 20.7416 19.5001C21.2361 18.76 21.5 17.89 21.5 17C21.5 15.8065 21.0259 14.6619 20.182 13.818C19.3381 12.9741 18.1935 12.5 17 12.5ZM17 20C16.4067 20 15.8266 19.8241 15.3333 19.4944C14.8399 19.1648 14.4554 18.6962 14.2284 18.1481C14.0013 17.5999 13.9419 16.9967 14.0576 16.4147C14.1734 15.8328 14.4591 15.2982 14.8787 14.8787C15.2982 14.4591 15.8328 14.1734 16.4147 14.0576C16.9967 13.9419 17.5999 14.0013 18.1481 14.2284C18.6962 14.4554 19.1648 14.8399 19.4944 15.3333C19.8241 15.8266 20 16.4067 20 17C19.9991 17.7954 19.6827 18.5579 19.1203 19.1203C18.5579 19.6827 17.7954 19.9991 17 20Z" fill="white"/>
<path d="M21.7002 13.3C22.2525 13.3 22.7002 12.8523 22.7002 12.3C22.7002 11.7478 22.2525 11.3 21.7002 11.3C21.1479 11.3 20.7002 11.7478 20.7002 12.3C20.7002 12.8523 21.1479 13.3 21.7002 13.3Z" fill="white"/>
</svg>
