<svg width="30" height="23" viewBox="0 0 30 23" fill="none" xmlns="http://www.w3.org/2000/svg">
<path fill-rule="evenodd" clip-rule="evenodd" d="M1.54312 21.255C2.9775 19.6397 4.90219 18.7491 6.96375 18.7491C9.02531 18.7491 10.95 19.6397 12.3844 21.2541C13.095 22.0556 14.0194 22.4972 14.9906 22.5H15.0075C15.9787 22.4972 16.905 22.0556 17.6156 21.2541C19.0491 19.6397 20.9738 18.7491 23.0334 18.7491C23.0353 18.7491 23.0353 18.7491 23.0353 18.7491C25.0969 18.7491 27.0216 19.6378 28.4569 21.2541C28.4906 21.2925 28.5319 21.3197 28.5666 21.3563C29.4778 19.4259 30 17.2772 30 15C30 6.71625 23.2838 0 15 0C6.71531 0 0 6.71625 0 15C0 17.2772 0.522188 19.4259 1.43156 21.3572C1.46719 21.3197 1.50844 21.2934 1.54312 21.255Z" fill="#FFCC66"/>
</svg>
