<svg width="43" height="44" viewBox="0 0 43 44" fill="none" xmlns="http://www.w3.org/2000/svg">
<ellipse cx="21.6744" cy="21.4378" rx="15.2945" ry="15.2947" fill="white"/>
<path d="M21.325 25.7204C23.4488 25.7204 25.1704 23.9987 25.1704 21.8748C25.1704 19.751 23.4488 18.0293 21.325 18.0293C19.2012 18.0293 17.4795 19.751 17.4795 21.8748C17.4795 23.9987 19.2012 25.7204 21.325 25.7204Z" fill="#EE37E7"/>
<path d="M26.1315 12.436H16.5178C15.1194 12.436 13.8959 12.873 13.1093 13.6596C12.3227 14.4462 11.8857 15.6698 11.8857 17.0681V26.682C11.8857 28.0803 12.3227 29.3039 13.1967 30.1779C14.0707 30.9645 15.2068 31.4015 16.6052 31.4015H26.1315C27.5298 31.4015 28.7534 30.9645 29.54 30.1779C30.4139 29.3913 30.8509 28.1677 30.8509 26.7694V17.1555C30.8509 15.7572 30.4139 14.621 29.6274 13.747C28.7534 12.873 27.6172 12.436 26.1315 12.436ZM21.3246 27.8181C18.0035 27.8181 15.3816 25.1088 15.3816 21.8751C15.3816 18.5539 18.0909 15.932 21.3246 15.932C24.5583 15.932 27.355 18.5539 27.355 21.8751C27.355 25.1962 24.6457 27.8181 21.3246 27.8181ZM27.5298 17.0681C26.7433 17.0681 26.1315 16.4564 26.1315 15.6698C26.1315 14.8832 26.7433 14.2714 27.5298 14.2714C28.3164 14.2714 28.9282 14.8832 28.9282 15.6698C28.9282 16.4564 28.3164 17.0681 27.5298 17.0681Z" fill="#EE37E7"/>
<path d="M21.4997 0.200195C9.61369 0.200195 0 9.81401 0 21.7002C0 33.5864 9.61369 43.2002 21.4997 43.2002C33.3857 43.2002 42.9994 33.5864 42.9994 21.7002C43.0868 9.81401 33.3857 0.200195 21.4997 0.200195ZM32.9487 26.7693C32.9487 28.7795 32.2496 30.5274 31.026 31.751C29.8024 32.9746 28.0545 33.5864 26.1318 33.5864H16.6055C14.6827 33.5864 12.9348 32.9746 11.7112 31.751C10.4003 30.5274 9.78848 28.7795 9.78848 26.7693V17.1555C9.78848 13.1352 12.4978 10.3384 16.6055 10.3384H26.2192C28.2293 10.3384 29.8898 11.0376 31.1134 12.2612C32.337 13.4847 32.9487 15.1453 32.9487 17.1555V26.7693Z" fill="#EE37E7"/>
</svg>
