<svg width="34" height="34" viewBox="0 0 34 34" fill="none" xmlns="http://www.w3.org/2000/svg">
<path d="M17 34C26.3888 34 34 26.3888 34 17C34 7.61116 26.3888 0 17 0C7.61116 0 0 7.61116 0 17C0 26.3888 7.61116 34 17 34Z" fill="#4E71A8"/>
<path d="M21.1796 13.8125H18.3463V11.9708C18.3463 11.2625 18.8421 11.1208 19.1255 11.1208C19.4796 11.1208 21.1088 11.1208 21.1088 11.1208V8.00415H18.3463C15.2296 8.00415 14.5921 10.3417 14.5921 11.7583V13.8125H12.8213V17H14.5921C14.5921 21.1083 14.5921 25.9958 14.5921 25.9958H18.3463C18.3463 25.9958 18.3463 21.0375 18.3463 17H20.8963L21.1796 13.8125Z" fill="white"/>
</svg>
